<?xml version="1.0" encoding="UTF-8"?>
<svg xmlns="http://www.w3.org/2000/svg" version="1.1" viewBox="0 0 38.9 32.9">
  <defs>
    <style>
      .cls-1 {
        fill: #82bc4f;
      }

      .cls-2 {
        fill: #16181d;
      }
    </style>
  </defs>
  <!-- Generator: Adobe Illustrator 28.7.1, SVG Export Plug-In . SVG Version: 1.2.0 Build 142)  -->
  <g>
    <g id="Layer_1">
      <path class="cls-2" d="M15.5,32.9c-.6,0-1.3-.1-1.9-.3-1.4-.5-2.4-1.5-3.1-2.8-.4-1-.6-2-.5-3,0,0-.2,0-.2,0-.7-.2-1.3-.6-1.9-1l-6-5c-.6-.5-1.1-1.2-1.5-1.9-.3-.7-.5-1.5-.5-2.3s.2-1.6.5-2.3c.3-.7.8-1.4,1.4-1.9l6-5c1-.8,2.2-1.3,3.5-1.3s.3,0,.5,0c1.4.1,2.8.8,3.7,1.9.3.3.5.7.7,1.1l2-5.4c.2-.7.6-1.3,1.1-1.8.5-.5,1.1-1,1.7-1.3.7-.3,1.4-.5,2.1-.5,0,0,.2,0,.2,0,.6,0,1.3.1,1.9.3.7.2,1.3.6,1.8,1.1.5.5,1,1.1,1.3,1.7.3.6.5,1.3.5,2.1,0,.3,0,.6,0,1,0,0,.2,0,.2,0,.7.2,1.3.6,1.9,1l6,5c.6.5,1.1,1.1,1.4,1.9.3.7.5,1.5.5,2.3s-.2,1.6-.5,2.3c-.3.7-.8,1.4-1.5,1.9l-6,5c-.5.5-1.2.8-1.9,1-.5.2-1.1.3-1.7.3s-.3,0-.5,0c-.7,0-1.4-.3-2.1-.6-.6-.3-1.2-.8-1.7-1.3-.3-.3-.5-.7-.7-1.1l-2,5.4c-.4,1.1-1.1,2-2,2.6-.9.6-2,1-3.1,1Z"/>
      <path class="cls-1" d="M12.4,12.6l-4.6,3.8,4.6,3.8c.2.1.3.3.4.5,0,.2.2.4.2.6,0,.2,0,.4,0,.6,0,.2-.2.4-.3.5-.1.2-.3.3-.5.4-.2,0-.4.1-.6.2-.2,0-.4,0-.6,0-.2,0-.4-.2-.5-.3l-6-5c-.2-.1-.3-.3-.4-.5,0-.2-.1-.4-.1-.6s0-.4.1-.6c0-.2.2-.4.4-.5l6-5c.3-.3.7-.4,1.1-.3.4,0,.8.2,1,.5.3.3.4.7.3,1.1,0,.4-.2.8-.5,1ZM34.4,15.3l-6-5c-.2-.1-.3-.2-.5-.3-.2,0-.4,0-.6,0-.2,0-.4,0-.6.2-.2,0-.3.2-.5.4-.1.2-.2.3-.3.5,0,.2,0,.4,0,.6,0,.2,0,.4.2.6,0,.2.2.3.4.5l4.6,3.8-4.6,3.8c-.2.1-.3.3-.4.5s-.2.4-.2.6c0,.2,0,.4,0,.6,0,.2.2.4.3.5.1.2.3.3.5.4.2,0,.4.1.6.2.2,0,.4,0,.6,0,.2,0,.4-.2.5-.3l6-5c.2-.1.3-.3.4-.5,0-.2.1-.4.1-.6s0-.4-.1-.6c0-.2-.2-.4-.4-.5ZM24,4.1c-.2,0-.4,0-.6,0-.2,0-.4,0-.6.1-.2,0-.3.2-.5.3-.1.1-.2.3-.3.5l-8,22c-.1.4-.1.8,0,1.1s.5.6.8.8c.2,0,.3,0,.5,0,.3,0,.6,0,.9-.3.3-.2.4-.4.5-.7L24.9,6c0-.2,0-.4,0-.6,0-.2,0-.4-.1-.6,0-.2-.2-.3-.3-.5-.1-.1-.3-.2-.5-.3Z"/>
    </g>
  </g>
</svg>